<svg xmlns="http://www.w3.org/2000/svg" width="20" height="30" viewBox="0 0 20 30" fill="none">
  <path d="M16.6666 24.3333V5.66666H3.33329V24.3333H16.6666ZM16.6666 0.333328C17.3739 0.333328 18.0521 0.61428 18.5522 1.11438C19.0523 1.61447 19.3333 2.29275 19.3333 2.99999V27C19.3333 27.7072 19.0523 28.3855 18.5522 28.8856C18.0521 29.3857 17.3739 29.6667 16.6666 29.6667H3.33329C2.62605 29.6667 1.94777 29.3857 1.44767 28.8856C0.947577 28.3855 0.666626 27.7072 0.666626 27V2.99999C0.666626 1.51999 1.85329 0.333328 3.33329 0.333328H16.6666ZM5.99996 8.33333H14V11H5.99996V8.33333ZM5.99996 13.6667H11.3333V16.3333H5.99996V13.6667Z" fill="#00374A"/>
</svg>